<svg xmlns="http://www.w3.org/2000/svg" width="20" height="23" viewBox="0 0 20 23"><g><g><g><g><g><g><path fill="#171717" d="M8.013 7.59a4.69 4.69 0 0 0 1.67.41 4.75 4.75 0 0 0 1.62-.42 5.15 5.15 0 0 1 2.35-.53 4 4 0 0 1 2.44.95 5.53 5.53 0 0 0-1.88 4.16 5.48 5.48 0 0 0 2.58 4.7 10.56 10.56 0 0 1-1 1.95c-.86 1.25-1.53 2.15-2.41 2.15a2.56 2.56 0 0 1-1.21-.31 5.07 5.07 0 0 0-2.24-.53 5.33 5.33 0 0 0-2.31.54 3 3 0 0 1-1.16.32c-.88.05-1.83-1.32-2.45-2.22-1.52-2.22-2.93-6.63-1.24-9.51a4.18 4.18 0 0 1 3.5-2.13 5 5 0 0 1 1.74.47zM6.563 23a4.94 4.94 0 0 0 1.92-.52 3.46 3.46 0 0 1 1.53-.38c.504.006 1 .13 1.45.36a4.5 4.5 0 0 0 2 .48c2 0 3.09-1.67 4-3a12.51 12.51 0 0 0 1.58-3.25l.27-.88-.86-.35a3.57 3.57 0 0 1-2.18-3.32A3.74 3.74 0 0 1 18.063 9l.89-.59-.59-.86a5.82 5.82 0 0 0-4.56-2.51 7 7 0 0 0-3.23.66 6.13 6.13 0 0 1-.89.3 4 4 0 0 1-.93-.27 6.6 6.6 0 0 0-2.55-.61 6.18 6.18 0 0 0-5.19 3.14c-2 3.42-.77 8.55 1.37 11.66.86 1.23 2.14 3.08 4.06 3.08z"/></g></g></g><g><path fill="#171717" d="M12.623 3.35a4.62 4.62 0 0 0 1.1-3.35 4.65 4.65 0 0 0-3.09 1.59 4.4 4.4 0 0 0-1.12 3.25 3.88 3.88 0 0 0 3.11-1.49"/></g></g></g></g></svg>