<svg xmlns="http://www.w3.org/2000/svg" width="22" height="17" viewBox="0 0 22 17"><g><g opacity="1"><g><g opacity="1"><path d="M16.403 12.264a.965.965 0 0 1-.84-1.447l2.818-4.93c.6-1.05.916-2.237.917-3.445a.454.454 0 0 0-.174-.367.425.425 0 0 0-.376-.116c-2.69.438-5.41.658-8.134.656A50.455 50.455 0 0 1 2.48 1.96a.425.425 0 0 0-.377.106.492.492 0 0 0-.173.338l.965 7.816a.972.972 0 0 1-1.93.231L0 2.442A2.393 2.393 0 0 1 .859.599c.528-.47 1.24-.68 1.94-.57A46.942 46.942 0 0 0 18.423.03a2.422 2.422 0 0 1 2.804 2.412A8.876 8.876 0 0 1 20.06 6.84l-2.817 4.931a.965.965 0 0 1-.84.492z"/></g><g opacity="1"><path d="M18.825 16.818a2.47 2.47 0 0 1-.376 0 52.23 52.23 0 0 0-7.835-.694 52.23 52.23 0 0 0-7.835.666A2.412 2.412 0 0 1 0 14.406a7.97 7.97 0 0 1 1.35-4.458l2.674-4.013a.965.965 0 0 1 1.601 1.07L2.953 11.02a6.098 6.098 0 0 0-1.023 3.387c0 .142.063.277.173.367.104.09.242.128.377.106 2.69-.427 5.41-.656 8.134-.685 2.724.029 5.443.258 8.134.685a.463.463 0 0 0 .376-.106c.099-.083.16-.2.174-.328l-.965-7.854a.972.972 0 0 1 1.93-.232l.965 8.047a2.412 2.412 0 0 1-.85 1.834c-.43.374-.982.58-1.553.578z"/></g></g></g></g></svg>