<svg xmlns="http://www.w3.org/2000/svg" width="24" height="17" viewBox="0 0 24 17"><g><g><g><g><path fill="#171717" d="M24 12c0 5-4 5-4 5l-5-4H9l-5 4s-4 0-4-5S4 0 4 0h4l2 3h4l2-3h4s4 7 4 12zM18.81 2h-1.74l-1.41 2.11-.59.89H8.93l-.59-.89L6.93 2H5.19C4 4.38 2 8.88 2 12c0 2 .82 2.68 1.43 2.89l4.32-3.45.55-.44h7.4l.55.44 4.31 3.45C21.2 14.65 22 14 22 12c0-3.13-2-7.63-3.19-10"/></g><g><path fill="#171717" d="M15 7a1 1 0 1 0 0 2 1 1 0 0 0 0-2z"/></g><g><path fill="#171717" d="M18 7a1 1 0 1 0 0 2 1 1 0 0 0 0-2z"/></g></g></g></g></svg>